<svg width="58" height="44" viewBox="0 0 58 44" fill="none" xmlns="http://www.w3.org/2000/svg">
<path d="M3.5925 18.4625C2.63971 18.4625 1.72594 18.841 1.05222 19.5147C0.378495 20.1884 0 21.1022 0 22.055C0 23.0078 0.378495 23.9216 1.05222 24.5953C1.72594 25.269 2.63971 25.6475 3.5925 25.6475V18.4625ZM53.8875 25.6475C54.8403 25.6475 55.7541 25.269 56.4278 24.5953C57.1015 23.9216 57.48 23.0078 57.48 22.055C57.48 21.1022 57.1015 20.1884 56.4278 19.5147C55.7541 18.841 54.8403 18.4625 53.8875 18.4625V25.6475ZM3.5925 0.5C2.63971 0.5 1.72594 0.878495 1.05222 1.55222C0.378495 2.22594 0 3.13971 0 4.0925C0 5.04529 0.378495 5.95906 1.05222 6.63278C1.72594 7.3065 2.63971 7.685 3.5925 7.685V0.5ZM53.8875 7.685C54.8403 7.685 55.7541 7.3065 56.4278 6.63278C57.1015 5.95906 57.48 5.04529 57.48 4.0925C57.48 3.13971 57.1015 2.22594 56.4278 1.55222C55.7541 0.878495 54.8403 0.5 53.8875 0.5V7.685ZM3.5925 36.425C2.63971 36.425 1.72594 36.8035 1.05222 37.4772C0.378495 38.1509 0 39.0647 0 40.0175C0 40.9703 0.378495 41.8841 1.05222 42.5578C1.72594 43.2315 2.63971 43.61 3.5925 43.61V36.425ZM53.8875 43.61C54.8403 43.61 55.7541 43.2315 56.4278 42.5578C57.1015 41.8841 57.48 40.9703 57.48 40.0175C57.48 39.0647 57.1015 38.1509 56.4278 37.4772C55.7541 36.8035 54.8403 36.425 53.8875 36.425V43.61ZM3.5925 25.6475H53.8875V18.4625H3.5925V25.6475ZM3.5925 7.685H53.8875V0.5H3.5925V7.685ZM3.5925 43.61H53.8875V36.425H3.5925V43.61Z" fill="#0D4C93"/>
</svg>
