<svg width="58" height="44" viewBox="0 0 58 44" fill="none" xmlns="http://www.w3.org/2000/svg">
<mask id="mask0_1_21" style="mask-type:luminance" maskUnits="userSpaceOnUse" x="0" y="0" width="58" height="44">
<path d="M0 0H57.48V43.11H0V0Z" fill="white"/>
</mask>
<g mask="url(#mask0_1_21)">
<path fill-rule="evenodd" clip-rule="evenodd" d="M0 28.74H57.48V43.11H0V28.74Z" fill="#14DC5A"/>
<path fill-rule="evenodd" clip-rule="evenodd" d="M0 0H57.48V17.9625H0V0Z" fill="#0099B5"/>
<path d="M-3.5925 17.0644H-4.49062V17.9625V28.74V29.6381H-3.5925H61.0725H61.9706V28.74V17.9625V17.0644H61.0725H-3.5925Z" fill="#F7FCFF" stroke="#C51918" stroke-width="1.79625"/>
<path fill-rule="evenodd" clip-rule="evenodd" d="M26.1196 5.40019L24.9108 6.07194L25.256 4.7067L24.0979 3.70345H25.6106L26.1178 2.41152L26.7127 3.70345H28.0023L26.989 4.7067L27.4762 6.07194L26.1196 5.40019ZM19.6386 9.51513L20.8476 8.84339L22.2042 9.51513L21.717 8.14989L22.7301 7.14665H21.4406L20.8458 5.85472L20.3384 7.14665H18.8258L19.984 8.14989L19.6386 9.51513ZM15.1382 12.5038L13.9293 13.1755L14.2745 11.8103L13.1164 10.8071H14.6291L15.1364 9.51513L15.7312 10.8071H17.0207L16.0075 11.8103L16.4947 13.1755L15.1382 12.5038ZM20.8476 12.5038L19.6386 13.1755L19.984 11.8103L18.8258 10.8071H20.3384L20.8458 9.51513L21.4406 10.8071H22.7301L21.717 11.8103L22.2042 13.1755L20.8476 12.5038ZM26.2003 12.5038L24.9914 13.1755L25.3366 11.8103L24.1786 10.8071H25.6912L26.1985 9.51513L26.7934 10.8071H28.0827L27.0697 11.8103L27.5568 13.1755L26.2003 12.5038ZM24.9914 9.51513L26.2003 8.84339L27.5568 9.51513L27.0697 8.14989L28.0827 7.14665H26.7934L26.1985 5.85472L25.6912 7.14665H24.1786L25.3366 8.14989L24.9914 9.51513ZM30.3789 13.1755L31.588 12.5038L32.9445 13.1755L32.4573 11.8103L33.4704 10.8071H32.1809L31.5862 9.51513L31.0787 10.8071H29.5661L30.7243 11.8103L30.3789 13.1755ZM31.588 8.84339L30.3789 9.51513L30.7243 8.14989L29.5661 7.14665H31.0787L31.5862 5.85472L32.1809 7.14665H33.4704L32.4573 8.14989L32.9445 9.51513L31.588 8.84339ZM30.2984 6.07194L31.5073 5.40019L32.8638 6.07194L32.3767 4.7067L33.3898 3.70345H32.1004L31.5055 2.41152L30.9982 3.70345H29.4856L30.6437 4.7067L30.2984 6.07194ZM37.0309 12.5038L35.8219 13.1755L36.1673 11.8103L35.0093 10.8071H36.5217L37.0292 9.51513L37.6239 10.8071H38.9134L37.9003 11.8103L38.3875 13.1755L37.0309 12.5038ZM35.8219 9.51513L37.0309 8.84339L38.3875 9.51513L37.9003 8.14989L38.9134 7.14665H37.6239L37.0292 5.85472L36.5217 7.14665H35.0093L36.1673 8.14989L35.8219 9.51513ZM36.9503 5.40019L35.7414 6.07194L36.0867 4.7067L34.9286 3.70345H36.4412L36.9485 2.41152L37.5434 3.70345H38.8328L37.8197 4.7067L38.3068 6.07194L36.9503 5.40019ZM10.5708 14.8022C10.5708 14.8022 6.2313 13.6253 6.31301 9.27208C6.39472 4.91889 10.7775 3.78867 10.7775 3.78867C8.98669 3.11051 3.69156 4.02051 3.59381 9.22795C3.49606 14.4354 8.90209 15.4613 10.5708 14.8022Z" fill="#F7FCFF"/>
</g>
</svg>
